<?xml version="1.0" encoding="UTF-8" standalone="no"?>
<!-- Created with Inkscape (http://www.inkscape.org/) -->

<svg
   xmlns:dc="http://purl.org/dc/elements/1.1/"
   xmlns:cc="http://creativecommons.org/ns#"
   xmlns:rdf="http://www.w3.org/1999/02/22-rdf-syntax-ns#"
   xmlns:svg="http://www.w3.org/2000/svg"
   xmlns="http://www.w3.org/2000/svg"
   xmlns:sodipodi="http://sodipodi.sourceforge.net/DTD/sodipodi-0.dtd"
   xmlns:inkscape="http://www.inkscape.org/namespaces/inkscape"
   width="32.579922mm"
   height="10.452419mm"
   viewBox="0 0 115.44067 37.036131"
   id="svg2"
   version="1.1"
   inkscape:version="0.91 r13725"
   sodipodi:docname="ECSI_logo.svg">
  <defs
     id="defs4" />
  <sodipodi:namedview
     id="base"
     pagecolor="#ffffff"
     bordercolor="#666666"
     borderopacity="1.0"
     inkscape:pageopacity="0.0"
     inkscape:pageshadow="2"
     inkscape:zoom="2.8"
     inkscape:cx="34.671348"
     inkscape:cy="-52.847273"
     inkscape:document-units="px"
     inkscape:current-layer="text4136"
     showgrid="false"
     fit-margin-top="0"
     fit-margin-left="0"
     fit-margin-right="0"
     fit-margin-bottom="0"
     inkscape:window-width="1600"
     inkscape:window-height="837"
     inkscape:window-x="-8"
     inkscape:window-y="-8"
     inkscape:window-maximized="1" />
  <metadata
     id="metadata7">
    <rdf:RDF>
      <cc:Work
         rdf:about="">
        <dc:format>image/svg+xml</dc:format>
        <dc:type
           rdf:resource="http://purl.org/dc/dcmitype/StillImage" />
        <dc:title />
      </cc:Work>
    </rdf:RDF>
  </metadata>
  <g
     inkscape:label="Layer 1"
     inkscape:groupmode="layer"
     id="layer1"
     transform="translate(-242.9234,-580.96082)">
    <g
       style="font-style:normal;font-weight:normal;font-size:16px;line-height:125%;font-family:Sans;letter-spacing:0px;word-spacing:0px;fill:#993300;fill-opacity:0.94117647;stroke:none;stroke-width:1px;stroke-linecap:butt;stroke-linejoin:miter;stroke-opacity:1"
       id="text4136">
      <path
         d="m 242.9234,581.57117 29.63867,0 0,7.6416 -18.55468,0 0,5.68848 17.21191,0 0,7.2998 -17.21191,0 0,7.05566 19.09179,0 0,8.10547 -30.17578,0 0,-35.79101 z"
         style="font-style:normal;font-variant:normal;font-weight:normal;font-stretch:normal;font-size:50px;font-family:'Arial Black';-inkscape-font-specification:'Arial Black, ';fill:#993300;fill-opacity:0.94117647"
         id="path3336" />
      <path
         d="m 299.61875,602.73816 9.69238,2.92969 q -0.97656,4.07715 -3.07617,6.81152 -2.09961,2.73438 -5.22461,4.12598 -3.10058,1.3916 -7.91015,1.3916 -5.83496,0 -9.5459,-1.68457 -3.68653,-1.70899 -6.37207,-5.98145 -2.68555,-4.27246 -2.68555,-10.9375 0,-8.88672 4.71192,-13.64746 4.73632,-4.78515 13.3789,-4.78515 6.7627,0 10.62012,2.73437 3.88183,2.73438 5.76172,8.39844 l -9.76563,2.17285 q -0.51269,-1.63574 -1.07422,-2.39258 -0.92773,-1.26953 -2.2705,-1.95312 -1.34278,-0.6836 -3.00293,-0.6836 -3.75977,0 -5.76172,3.02735 -1.51367,2.24609 -1.51367,7.05566 0,5.95703 1.80664,8.17871 1.80664,2.19727 5.07812,2.19727 3.17383,0 4.78516,-1.78223 1.63574,-1.78223 2.36816,-5.17578 z"
         style="font-style:normal;font-variant:normal;font-weight:normal;font-stretch:normal;font-size:50px;font-family:'Arial Black';-inkscape-font-specification:'Arial Black, ';fill:#993300;fill-opacity:0.94117647"
         id="path3338" />
      <path
         d="m 310.8391,605.52136 10.52246,-0.65918 q 0.3418,2.56348 1.39161,3.90625 1.70898,2.17285 4.88281,2.17285 2.36816,0 3.63769,-1.09863 1.29395,-1.12305 1.29395,-2.58789 0,-1.3916 -1.2207,-2.49023 -1.22071,-1.09864 -5.66407,-2.0752 -7.27539,-1.63574 -10.37597,-4.3457 -3.125,-2.70996 -3.125,-6.90918 0,-2.75879 1.58691,-5.2002 1.61133,-2.46582 4.80957,-3.85742 3.22266,-1.41601 8.81348,-1.41601 6.86035,0 10.44922,2.56347 3.61328,2.53906 4.29687,8.10547 l -10.4248,0.61035 q -0.41504,-2.41699 -1.75782,-3.51562 -1.31835,-1.09864 -3.6621,-1.09864 -1.92872,0 -2.90528,0.83008 -0.97656,0.80567 -0.97656,1.97754 0,0.85449 0.80566,1.53809 0.78125,0.70801 3.71094,1.31836 7.25098,1.5625 10.37598,3.17383 3.14941,1.58691 4.56543,3.95507 1.44043,2.36817 1.44043,5.29785 0,3.44239 -1.9043,6.34766 -1.9043,2.90527 -5.32227,4.41895 -3.41796,1.48925 -8.61816,1.48925 -9.13086,0 -12.64648,-3.51562 -3.51563,-3.51563 -3.9795,-8.93555 z"
         style="font-style:normal;font-variant:normal;font-weight:normal;font-stretch:normal;font-size:50px;font-family:'Arial Black';-inkscape-font-specification:'Arial Black, ';fill:#993300;fill-opacity:0.94117647"
         id="path3340" />
      <path
         d="m 347.28008,581.57117 11.08399,0 0,35.79101 -11.08399,0 0,-35.79101 z"
         style="font-style:normal;font-variant:normal;font-weight:normal;font-stretch:normal;font-size:50px;font-family:'Arial Black';-inkscape-font-specification:'Arial Black, ';fill:#993300;fill-opacity:0.94117647"
         id="path3342" />
    </g>
  </g>
</svg>
